# xmcd
# 
# Track frame offsets:
#     187
#     15187
#     31625
#     46000
#     57150
#     68862
#     80687
#     92837
#     105037
#     118725
#     135362
#     147512
# 
# Disc length: 2154
# 
# Revision: 1
# Processed by: cddbd v1.5.2PL0 Copyright (c) Steve Scherf et al.
# Submitted via: BonkEnc v1.0.8
# 
DISCID=8b08680c
DTITLE=Anita O'Day - The Lady Is A Tramp
DYEAR=0
DGENRE=
TTITLE0=Rock n Roll Blues
TTITLE1=Love For Sale
TTITLE2=Lullaby Of The Leaves
TTITLE3=Lover Come Back To Me
TTITLE4=No Soap, No Hope Blues
TTITLE5=Speak Low
TTITLE6=Pagan Love Song
TTITLE7=Ain't this a Wonderful Day
TTITLE8=Somebody's Crying
TTITLE9=Vaya Con Dios
TTITLE10=The Lady Is A Tramp
TTITLE11=Strawberry Moon
EXTD=
EXTT0=
EXTT1=
EXTT2=
EXTT3=
EXTT4=
EXTT5=
EXTT6=
EXTT7=
EXTT8=
EXTT9=
EXTT10=
EXTT11=
PLAYORDER=
